<svg xmlns="http://www.w3.org/2000/svg" width="64" height="64" viewBox="0 0 64 64">
  <defs>
    <radialGradient id="bookGlow" cx="50%" cy="55%" r="50%">
      <stop offset="0%" stop-color="#2563eb" stop-opacity="0.45"/>
      <stop offset="100%" stop-color="#2563eb" stop-opacity="0"/>
    </radialGradient>
  </defs>

  <!-- Background rounded square -->
  <rect width="64" height="64" rx="14" fill="#161616"/>
  <!-- Blue glow behind icon -->
  <ellipse cx="32" cy="34" rx="27" ry="25" fill="url(#bookGlow)"/>
  <!-- Subtle blue border -->
  <rect width="64" height="64" rx="14" fill="none" stroke="#2563eb" stroke-opacity="0.35" stroke-width="1.5"/>

  <!-- Book icon: translate(8,8) scale(2) centers the 24x24 content in 64x64 -->
  <g transform="translate(8,8) scale(2)">
    <path fill="#fff" d="M21.204 18.136h-6.136L12 20.692l-3.068-2.556H2.797V.75h6.135L12 3.308L15.068.75h6.136z"/>
    <path fill="#bbd8ff" d="m12 20.692l-3.068-2.556V.75L12 3.308zm0 0l3.068-2.556V.75L12 3.308z"/>
    <path fill="#bbd8ff" d="M21.204 2.797v15.339h-6.136L12 20.692l-3.068-2.556H2.797V2.796H.75v17.385h7.67L12 23.249l3.58-3.068h7.669V2.797z"/>
    <path fill="none" stroke="#092f63" stroke-linecap="round" stroke-linejoin="round" d="M2.797 2.797H.75V20.18h7.67L12 23.249l3.58-3.068h7.669V2.797h-2.045M12 3.308v17.384"/>
    <path fill="none" stroke="#092f63" stroke-linecap="round" stroke-linejoin="round" d="M21.204 18.136h-6.136L12 20.692l-3.068-2.556H2.797V.75h6.135L12 3.308L15.068.75h6.136z"/>
  </g>
</svg>
